<svg width="32" height="32" viewBox="0 0 32 32" fill="none" xmlns="http://www.w3.org/2000/svg">
<rect width="32" height="32" fill="white"/>
<rect x="5.6886" y="13.5099" width="20.6169" height="4.76765" fill="#A5EB71"/>
<path fill-rule="evenodd" clip-rule="evenodd" d="M22.4458 10.1362C22.4458 10.7637 21.9371 11.2724 21.3096 11.2724L5.53624 11.2724C4.90873 11.2724 4.40002 10.7637 4.40002 10.1362V10.1362C4.40002 9.5087 4.90873 9 5.53624 9L21.3096 9C21.9371 9 22.4458 9.5087 22.4458 10.1362V10.1362Z" fill="#293321"/>
<path fill-rule="evenodd" clip-rule="evenodd" d="M25.0204 15.8938C25.0204 16.5213 24.5117 17.03 23.8842 17.03L8.11082 17.03C7.48331 17.03 6.97461 16.5213 6.97461 15.8938V15.8938C6.97461 15.2663 7.48331 14.7576 8.11082 14.7576L23.8842 14.7576C24.5117 14.7576 25.0204 15.2663 25.0204 15.8938V15.8938Z" fill="#293321"/>
<path fill-rule="evenodd" clip-rule="evenodd" d="M27.6 21.7332C27.6 22.3607 27.0913 22.8694 26.4638 22.8694L10.6904 22.8694C10.0629 22.8694 9.5542 22.3607 9.5542 21.7332V21.7332C9.5542 21.1057 10.0629 20.597 10.6904 20.597L26.4638 20.597C27.0913 20.597 27.6 21.1057 27.6 21.7332V21.7332Z" fill="#293321"/>
</svg>
