<svg width="1862" height="317" viewBox="0 0 1862 317" fill="none" xmlns="http://www.w3.org/2000/svg">
<path d="M1826.73 316.686C1806.95 316.686 1790.32 313.359 1776.85 306.703C1763.66 300.047 1753.77 290.353 1747.17 277.62C1740.86 264.887 1737.71 248.827 1737.71 229.438V147.833H1719.65C1711.62 147.833 1700.72 147.833 1700.72 147.833V98.7831C1700.72 98.7831 1711.62 98.7831 1719.65 98.7831H1737.71V65.7938C1737.71 54.7973 1737.71 41.0518 1737.71 41.0518H1802.65C1802.65 41.0518 1802.65 54.7973 1802.65 65.7938V98.7831H1843.51C1851.53 98.7831 1862 98.7831 1862 98.7831V147.833C1862 147.833 1851.53 147.833 1843.51 147.833H1802.65V226.834C1802.65 238.988 1805.37 248.103 1810.82 254.18C1816.56 260.257 1825.59 263.296 1837.92 263.296C1846.04 263.296 1853.95 261.098 1862 260.257V308.005C1850.89 313.482 1839.14 316.686 1826.73 316.686Z" fill="#293321"/>
<path d="M1530.65 313.754C1530.65 313.754 1530.65 293.285 1530.65 282.486V127.081C1530.65 116.282 1530.65 102.566 1530.65 102.566H1595.04C1595.04 102.566 1595.04 116.282 1595.04 127.081V149.844H1590.69C1594.17 132.334 1601.86 118.763 1613.75 109.132C1629.6 96.2923 1655.16 94.7655 1676.4 98.6259L1677.27 149.844C1662.61 149.844 1657.83 150.156 1646.38 151.157C1629.84 152.617 1617.52 157.432 1609.4 165.604C1601.57 173.775 1597.65 185.595 1597.65 201.062V282.486C1597.65 293.285 1597.65 313.754 1597.65 313.754H1530.65Z" fill="#293321"/>
<path d="M1360.1 316.687C1344.47 316.687 1330.43 313.64 1317.99 307.546C1305.54 301.452 1295.84 293.182 1288.9 282.736C1281.95 272.29 1278.48 260.538 1278.48 247.48C1278.48 231.811 1282.53 219.478 1290.63 210.483C1298.74 201.197 1311.91 194.668 1330.14 190.896C1348.38 186.834 1372.55 184.803 1402.65 184.803H1425.66V218.753H1403.09C1388.32 218.753 1376.31 219.623 1367.05 221.364C1358.08 222.815 1351.56 225.427 1347.51 229.199C1343.75 232.971 1341.87 238.195 1341.87 244.869C1341.87 252.993 1344.62 259.667 1350.12 264.891C1355.9 270.114 1364.15 272.725 1374.86 272.725C1383.26 272.725 1390.64 270.839 1397.01 267.067C1403.66 263.004 1408.87 257.636 1412.64 250.962C1416.4 243.998 1418.28 236.163 1418.28 227.458V177.403C1418.28 164.635 1415.39 155.64 1409.6 150.417C1403.81 144.904 1393.97 142.147 1380.07 142.147C1372.26 142.147 1363.72 143.163 1354.46 145.194C1338.75 148.242 1326.68 152.324 1307.57 156.511L1293.96 116.532C1293.96 116.532 1304.38 110.518 1311.04 108.197C1324.64 102.683 1337.38 98.9111 1349.25 96.8799C1361.4 94.8486 1372.55 93.833 1382.68 93.833C1404.97 93.833 1423.2 97.17 1437.39 103.844C1451.86 110.228 1462.71 120.239 1469.95 133.877C1477.18 147.225 1480.8 164.49 1480.8 185.673V282.301C1480.8 293.037 1480.8 314.946 1480.8 314.946H1419.58C1419.58 314.946 1419.58 293.037 1419.58 282.301V266.196L1422.62 268.808C1420.89 278.674 1417.12 287.234 1411.33 294.488C1405.83 301.452 1398.74 306.966 1390.06 311.028C1381.38 314.8 1371.39 316.687 1360.1 316.687Z" fill="#293321"/>
<path d="M1094.45 316.687L1029.23 316.249C1029.23 316.249 1029.23 293.766 1029.23 282.963V33.7609C1029.23 22.6658 1029.23 8.79688 1029.23 8.79688H1094.45C1094.45 8.79688 1094.45 22.6658 1094.45 33.7609V137.997H1088.41C1095.03 123.69 1104.82 112.741 1117.78 105.149C1131.02 97.2659 1146 93.3242 1162.7 93.3242C1179.69 93.3242 1193.65 96.6819 1204.6 103.397C1215.54 109.821 1223.75 119.748 1229.22 133.179C1234.69 146.318 1237.42 163.107 1237.42 183.545V282.963C1237.42 293.766 1237.42 316.687 1237.42 316.687L1172.2 316.249C1172.2 316.249 1172.2 293.766 1172.2 282.963V186.611C1172.2 171.72 1169.47 161.063 1163.99 154.639C1158.81 147.924 1150.75 144.566 1139.81 144.566C1125.98 144.566 1114.9 148.946 1106.55 157.705C1098.48 166.464 1094.45 178.144 1094.45 192.742V282.963C1094.45 305.446 1094.45 316.687 1094.45 316.687Z" fill="#293321"/>
<path d="M885.735 316.687C852.544 316.687 824.158 310.153 800.575 297.084C776.992 284.016 758.795 265.721 745.985 242.198C733.466 218.385 727.206 190.36 727.206 158.126C727.206 134.022 730.7 112.387 737.687 93.22C744.966 73.7629 755.447 57.2098 769.131 43.5607C782.815 29.6213 799.41 18.8763 818.917 11.3258C838.715 3.77525 860.988 0 885.735 0C900.292 0 914.995 1.88763 929.844 5.6629C950.442 10.4044 961.245 14.8802 985.187 29.8055L964.344 78.4093C944.692 71.4396 933.671 67.151 917.179 63.1631C907.571 60.8398 897.818 59.6782 887.919 59.6782C868.412 59.6782 851.962 63.5987 838.569 71.4396C825.468 78.9901 815.569 90.0255 808.872 104.546C802.176 119.066 798.828 136.926 798.828 158.126C798.828 179.035 802.176 196.895 808.872 211.705C815.569 226.516 825.468 237.842 838.569 245.683C851.962 253.233 868.412 257.008 887.919 257.008C897.235 257.008 906.697 255.847 916.305 253.524C933.066 249.59 947.778 245.683 964.781 238.713L988.179 289.507C957.168 306.52 921.337 316.687 885.735 316.687Z" fill="#293321"/>
<rect x="29.3228" y="102.63" width="469.165" height="108.494" fill="#679346"/>
<path fill-rule="evenodd" clip-rule="evenodd" d="M410.657 25.8562C410.657 40.1361 399.08 51.7123 384.8 51.7123L25.8562 51.7123C11.5762 51.7123 0 40.1361 0 25.8562V25.8562C0 11.5762 11.5762 0 25.8561 0L384.8 0C399.08 0 410.657 11.5762 410.657 25.8562V25.8562Z" fill="#293321"/>
<path fill-rule="evenodd" clip-rule="evenodd" d="M469.243 156.877C469.243 171.157 457.667 182.733 443.387 182.733L84.4431 182.733C70.1631 182.733 58.5869 171.157 58.5869 156.877V156.877C58.5869 142.597 70.1631 131.021 84.4431 131.021L443.387 131.021C457.667 131.021 469.243 142.597 469.243 156.877V156.877Z" fill="#293321"/>
<path fill-rule="evenodd" clip-rule="evenodd" d="M527.948 289.761C527.948 304.041 516.372 315.618 502.092 315.618L143.148 315.618C128.868 315.618 117.292 304.041 117.292 289.761V289.761C117.292 275.481 128.868 263.905 143.148 263.905L502.092 263.905C516.372 263.905 527.948 275.481 527.948 289.761V289.761Z" fill="#293321"/>
</svg>
