<svg width="1862" height="317" viewBox="0 0 1862 317" fill="none" xmlns="http://www.w3.org/2000/svg">
<path d="M1826.73 317C1806.95 317 1790.32 313.672 1776.85 307.016C1763.66 300.361 1753.77 290.666 1747.17 277.934C1740.86 265.201 1737.71 249.14 1737.71 229.752V148.147H1719.65C1711.62 148.147 1700.72 148.147 1700.72 148.147V99.0966C1700.72 99.0966 1711.62 99.0966 1719.65 99.0966H1737.71V66.1072C1737.71 55.1108 1737.71 41.3652 1737.71 41.3652H1802.65C1802.65 41.3652 1802.65 55.1108 1802.65 66.1072V99.0966H1843.51C1851.53 99.0966 1862 99.0966 1862 99.0966V148.147C1862 148.147 1851.53 148.147 1843.51 148.147H1802.65V227.147C1802.65 239.301 1805.37 248.417 1810.82 254.494C1816.56 260.571 1825.59 263.609 1837.92 263.609C1846.04 263.609 1853.95 261.412 1862 260.571V308.318C1850.89 313.796 1839.14 317 1826.73 317Z" fill="white"/>
<path d="M1530.65 314.068C1530.65 314.068 1530.65 293.598 1530.65 282.8V127.394C1530.65 116.596 1530.65 102.879 1530.65 102.879H1595.04C1595.04 102.879 1595.04 116.596 1595.04 127.394V150.158H1590.69C1594.17 132.647 1601.86 119.076 1613.75 109.446C1629.6 96.6057 1655.16 95.079 1676.4 98.9394L1677.27 150.158C1662.61 150.158 1657.83 150.469 1646.38 151.471C1629.84 152.93 1617.52 157.746 1609.4 165.917C1601.57 174.089 1597.65 185.908 1597.65 201.376V282.8C1597.65 293.598 1597.65 314.068 1597.65 314.068H1530.65Z" fill="white"/>
<path d="M1360.1 317C1344.47 317 1330.43 313.953 1317.99 307.86C1305.54 301.766 1295.84 293.496 1288.9 283.05C1281.95 272.603 1278.48 260.851 1278.48 247.794C1278.48 232.124 1282.53 219.792 1290.63 210.796C1298.74 201.511 1311.91 194.982 1330.14 191.21C1348.38 187.147 1372.55 185.116 1402.65 185.116H1425.66V219.066H1403.09C1388.32 219.066 1376.31 219.937 1367.05 221.678C1358.08 223.129 1351.56 225.74 1347.51 229.513C1343.75 233.285 1341.87 238.508 1341.87 245.182C1341.87 253.307 1344.62 259.981 1350.12 265.204C1355.9 270.427 1364.15 273.039 1374.86 273.039C1383.26 273.039 1390.64 271.153 1397.01 267.38C1403.66 263.318 1408.87 257.95 1412.64 251.276C1416.4 244.311 1418.28 236.477 1418.28 227.772V177.717C1418.28 164.949 1415.39 155.954 1409.6 150.73C1403.81 145.217 1393.97 142.46 1380.07 142.46C1372.26 142.46 1363.72 143.476 1354.46 145.507C1338.75 148.556 1326.68 152.638 1307.57 156.824L1293.96 116.845C1293.96 116.845 1304.38 110.831 1311.04 108.51C1324.64 102.997 1337.38 99.2245 1349.25 97.1933C1361.4 95.1621 1372.55 94.1465 1382.68 94.1465C1404.97 94.1465 1423.2 97.4835 1437.39 104.157C1451.86 110.541 1462.71 120.552 1469.95 134.191C1477.18 147.539 1480.8 164.804 1480.8 185.987V282.614C1480.8 293.351 1480.8 315.259 1480.8 315.259H1419.58C1419.58 315.259 1419.58 293.351 1419.58 282.614V266.51L1422.62 269.121C1420.89 278.987 1417.12 287.547 1411.33 294.802C1405.83 301.766 1398.74 307.279 1390.06 311.342C1381.38 315.114 1371.39 317 1360.1 317Z" fill="white"/>
<path d="M1094.45 317L1029.23 316.562C1029.23 316.562 1029.23 294.08 1029.23 283.277V34.0744C1029.23 22.9792 1029.23 9.11035 1029.23 9.11035H1094.45C1094.45 9.11035 1094.45 22.9792 1094.45 34.0744V138.31H1088.41C1095.03 124.003 1104.82 113.054 1117.78 105.463C1131.02 97.5794 1146 93.6377 1162.7 93.6377C1179.69 93.6377 1193.65 96.9954 1204.6 103.711C1215.54 110.134 1223.75 120.062 1229.22 133.493C1234.69 146.632 1237.42 163.42 1237.42 183.859V283.277C1237.42 294.08 1237.42 317 1237.42 317L1172.2 316.562C1172.2 316.562 1172.2 294.08 1172.2 283.277V186.924C1172.2 172.034 1169.47 161.376 1163.99 154.953C1158.81 148.237 1150.75 144.88 1139.81 144.88C1125.98 144.88 1114.9 149.259 1106.55 158.019C1098.48 166.778 1094.45 178.457 1094.45 193.056V283.277C1094.45 305.759 1094.45 317 1094.45 317Z" fill="white"/>
<path d="M885.735 317C852.545 317 824.158 310.466 800.575 297.398C776.992 284.33 758.796 266.034 745.985 242.511C733.466 218.698 727.206 190.674 727.206 158.439C727.206 134.335 730.7 112.7 737.688 93.5335C744.966 74.0763 755.447 57.5233 769.131 43.8742C782.815 29.9348 799.41 19.1898 818.917 11.6392C838.715 4.08873 860.988 0.313477 885.735 0.313477C900.293 0.313477 914.995 2.20111 929.844 5.97637C950.443 10.7179 961.245 15.1937 985.187 30.119L964.345 78.7228C944.692 71.7531 933.671 67.4645 917.179 63.4765C907.571 61.1533 897.818 59.9917 887.919 59.9917C868.412 59.9917 851.962 63.9121 838.57 71.7531C825.468 79.3036 815.569 90.339 808.873 104.859C802.176 119.38 798.828 137.239 798.828 158.439C798.828 179.348 802.176 197.208 808.873 212.019C815.569 226.829 825.468 238.155 838.57 245.996C851.962 253.547 868.412 257.322 887.919 257.322C897.235 257.322 906.698 256.16 916.306 253.837C933.066 249.903 947.778 245.996 964.781 239.026L988.18 289.82C957.168 306.833 921.337 317 885.735 317Z" fill="white"/>
<rect x="29.3228" y="102.943" width="469.165" height="108.494" fill="#A5EB71"/>
<path fill-rule="evenodd" clip-rule="evenodd" d="M410.657 26.1696C410.657 40.4496 399.08 52.0258 384.8 52.0258L25.8562 52.0258C11.5762 52.0258 0 40.4496 0 26.1696V26.1696C0 11.8897 11.5762 0.313477 25.8561 0.313477L384.8 0.313477C399.08 0.313477 410.657 11.8897 410.657 26.1696V26.1696Z" fill="white"/>
<path fill-rule="evenodd" clip-rule="evenodd" d="M469.243 157.19C469.243 171.47 457.667 183.046 443.387 183.046L84.4431 183.046C70.1631 183.046 58.5869 171.47 58.5869 157.19V157.19C58.5869 142.91 70.1631 131.334 84.4431 131.334L443.387 131.334C457.667 131.334 469.243 142.91 469.243 157.19V157.19Z" fill="white"/>
<path fill-rule="evenodd" clip-rule="evenodd" d="M527.948 290.075C527.948 304.355 516.372 315.931 502.092 315.931L143.147 315.931C128.867 315.931 117.291 304.355 117.291 290.075V290.075C117.291 275.795 128.867 264.219 143.147 264.219L502.092 264.219C516.372 264.219 527.948 275.795 527.948 290.075V290.075Z" fill="white"/>
</svg>
