<svg width="635" height="108" viewBox="0 0 635 108" fill="none" xmlns="http://www.w3.org/2000/svg">
<path d="M622.973 108C616.227 108 610.556 106.865 605.96 104.595C601.462 102.325 598.089 99.0194 595.84 94.6772C593.689 90.3349 592.613 84.8578 592.613 78.2457V50.4157H586.453C583.716 50.4157 580 50.4157 580 50.4157V33.6882C580 33.6882 583.716 33.6882 586.453 33.6882H592.613V22.4378C592.613 18.6877 592.613 14 592.613 14H614.76C614.76 14 614.76 18.6877 614.76 22.4378V33.6882H628.693C631.431 33.6882 635 33.6882 635 33.6882V50.4157C635 50.4157 631.431 50.4157 628.693 50.4157H614.76V77.3575C614.76 81.5024 615.689 84.611 617.547 86.6835C619.502 88.7559 622.582 89.7921 626.787 89.7921C629.556 89.7921 632.253 89.0427 635 88.7559V105.039C631.21 106.907 627.206 108 622.973 108Z" fill="#293321"/>
<path d="M522 107C522 107 522 100.019 522 96.3367V43.3385C522 39.656 522 34.9782 522 34.9782H543.958C543.958 34.9782 543.958 39.656 543.958 43.3385V51.1016H542.475C543.662 45.13 546.283 40.502 550.338 37.2176C555.745 32.8387 564.461 32.3181 571.703 33.6346L572 51.1016C567.003 51.1016 565.37 51.2079 561.466 51.5495C555.828 52.0471 551.624 53.6893 548.855 56.4761C546.184 59.2628 544.849 63.2937 544.849 68.5686V96.3367C544.849 100.019 544.849 107 544.849 107H522Z" fill="#293321"/>
<path d="M463.837 108C458.506 108 453.719 106.961 449.474 104.883C445.23 102.805 441.923 99.9844 439.554 96.4219C437.185 92.8594 436 88.8516 436 84.3984C436 79.0547 437.382 74.849 440.146 71.7813C442.91 68.6146 447.401 66.388 453.62 65.1016C459.839 63.7161 468.082 63.0234 478.348 63.0234H486.195V74.6016H478.496C473.461 74.6016 469.365 74.8984 466.206 75.4922C463.146 75.987 460.925 76.8776 459.543 78.1641C458.26 79.4505 457.618 81.2318 457.618 83.5078C457.618 86.2786 458.556 88.5547 460.431 90.3359C462.406 92.1172 465.219 93.0078 468.871 93.0078C471.734 93.0078 474.251 92.3646 476.423 91.0781C478.693 89.6927 480.47 87.862 481.753 85.5859C483.036 83.2109 483.678 80.5391 483.678 77.5703V60.5C483.678 56.1458 482.691 53.0781 480.717 51.2969C478.742 49.4167 475.386 48.4766 470.648 48.4766C467.983 48.4766 465.071 48.8229 461.912 49.5156C456.554 50.5552 452.441 51.9474 445.921 53.375L441.279 39.7411C441.279 39.7411 444.835 37.6901 447.105 36.8984C451.745 35.0182 456.088 33.7318 460.135 33.0391C464.281 32.3464 468.082 32 471.536 32C479.137 32 485.356 33.138 490.193 35.4141C495.129 37.5911 498.83 41.0052 501.298 45.6563C503.766 50.2083 505 56.0964 505 63.3203V96.2734C505 99.9349 505 107.406 505 107.406H484.122C484.122 107.406 484.122 99.9349 484.122 96.2734V90.7812L485.159 91.6719C484.567 95.0365 483.283 97.9557 481.309 100.43C479.433 102.805 477.015 104.685 474.054 106.07C471.092 107.357 467.687 108 463.837 108Z" fill="#293321"/>
<path d="M373.243 108L351 107.851C351 107.851 351 100.184 351 96.4993V11.5135C351 7.72973 351 3 351 3H373.243C373.243 3 373.243 7.72973 373.243 11.5135V47.0612H371.18C373.439 42.1821 376.778 38.4481 381.197 35.8592C385.714 33.1707 390.821 31.8265 396.517 31.8265C402.311 31.8265 407.073 32.9715 410.805 35.2617C414.537 37.4523 417.335 40.8378 419.201 45.4182C421.067 49.899 422 55.6245 422 62.5946V96.4993C422 100.184 422 108 422 108L399.757 107.851C399.757 107.851 399.757 100.184 399.757 96.4993V63.6401C399.757 58.5619 398.824 54.9275 396.959 52.7368C395.191 50.4467 392.441 49.3016 388.71 49.3016C383.996 49.3016 380.215 50.7952 377.367 53.7824C374.618 56.7696 373.243 60.7525 373.243 65.7312V96.4993C373.243 104.166 373.243 108 373.243 108Z" fill="#293321"/>
<path d="M302.063 108C290.744 108 281.064 105.772 273.021 101.315C264.979 96.8583 258.773 90.619 254.404 82.597C250.135 74.4759 248 64.9188 248 53.9257C248 45.7056 249.191 38.3274 251.574 31.7909C254.057 25.1554 257.631 19.5103 262.298 14.8556C266.964 10.1018 272.624 6.43741 279.276 3.86244C286.028 1.28748 293.624 0 302.063 0C307.028 0 312.042 0.643741 317.106 1.93122C324.131 3.54822 327.815 5.07461 335.979 10.1646L328.872 26.74C322.169 24.3631 318.411 22.9006 312.787 21.5406C309.51 20.7483 306.184 20.3521 302.808 20.3521C296.156 20.3521 290.546 21.6891 285.978 24.3631C281.51 26.9381 278.134 30.7015 275.851 35.6534C273.567 40.6052 272.425 46.696 272.425 53.9257C272.425 61.0564 273.567 67.1472 275.851 72.1981C278.134 77.249 281.51 81.1114 285.978 83.7854C290.546 86.3604 296.156 87.6479 302.808 87.6479C305.985 87.6479 309.212 87.2517 312.489 86.4594C318.205 85.1179 323.222 83.7854 329.02 81.4085L337 98.7309C326.424 104.533 314.205 108 302.063 108Z" fill="#293321"/>
<rect x="10" y="35" width="160" height="37" fill="#A5EB71"/>
<path fill-rule="evenodd" clip-rule="evenodd" d="M140.047 8.81776C140.047 13.6877 136.099 17.6355 131.229 17.6355L8.81775 17.6355C3.94784 17.6355 0 13.6877 0 8.81776V8.81776C0 3.94784 3.94783 0 8.81774 0L131.229 0C136.099 0 140.047 3.94784 140.047 8.81776V8.81776Z" fill="#293321"/>
<path fill-rule="evenodd" clip-rule="evenodd" d="M160.027 53.5C160.027 58.3699 156.079 62.3178 151.209 62.3178L28.7977 62.3178C23.9278 62.3178 19.98 58.3699 19.98 53.5V53.5C19.98 48.6301 23.9278 44.6823 28.7977 44.6823L151.209 44.6823C156.079 44.6823 160.027 48.6301 160.027 53.5V53.5Z" fill="#293321"/>
<path fill-rule="evenodd" clip-rule="evenodd" d="M180.047 98.8178C180.047 103.688 176.099 107.636 171.229 107.636L48.8178 107.636C43.9478 107.636 40 103.688 40 98.8178V98.8178C40 93.9478 43.9478 90 48.8177 90L171.229 90C176.099 90 180.047 93.9478 180.047 98.8178V98.8178Z" fill="#293321"/>
</svg>
